HIERARCHY
ROOT Hips
{
    OFFSET   0.000000   0.000000   0.000000
    CHANNELS 6 Xposition Yposition Zposition Zrotation Xrotation Yrotation
    JOINT Chest
    {
        OFFSET   0.000000   8.007230   0.000000
        CHANNELS 3 Zrotation Xrotation Yrotation
        JOINT Chest2
        {
            OFFSET   0.000000  22.077100   0.000000
            CHANNELS 3 Zrotation Xrotation Yrotation
            JOINT Neck
            {
                OFFSET   0.000000  23.254700   0.000000
                CHANNELS 3 Zrotation Xrotation Yrotation
                JOINT Head
                {
                    OFFSET   0.000010  14.370000   1.956610
                    CHANNELS 3 Zrotation Xrotation Yrotation
                    End Site
                    {
                        OFFSET   0.000000  19.566000   0.000000
                    }
                }
            }
            JOINT LeftCollar
            {
                OFFSET   3.911900  19.017000  -0.467063
                CHANNELS 3 Zrotation Xrotation Yrotation
                JOINT LeftShoulder
                {
                    OFFSET  10.383700   0.000000   0.000000
                    CHANNELS 3 Zrotation Xrotation Yrotation
                    JOINT LeftElbow
                    {
                        OFFSET  26.662100   0.001671   0.000522
                        CHANNELS 3 Zrotation Xrotation Yrotation
                        JOINT LeftWrist
                        {
                            OFFSET  28.869000   0.000037  -0.000114
                            CHANNELS 3 Zrotation Xrotation Yrotation
                            JOINT LeftFinger0
                            {
                                OFFSET   2.044650  -2.323450   3.252850
                                CHANNELS 3 Zrotation Xrotation Yrotation
                                JOINT LeftFinger01
                                {
                                    OFFSET   3.088140   0.000000   0.000000
                                    CHANNELS 3 Zrotation Xrotation Yrotation
                                    JOINT LeftFinger02
                                    {
                                        OFFSET   2.639460   0.000000   0.000000
                                        CHANNELS 3 Zrotation Xrotation Yrotation
                                        End Site
                                        {
                                            OFFSET   2.582190   0.000000   0.000000
                                        }
                                    }
                                }
                            }
                            JOINT LeftFinger1
                            {
                                OFFSET   8.364480   0.000000   3.252850
                                CHANNELS 3 Zrotation Xrotation Yrotation
                                JOINT LeftFinger11
                                {
                                    OFFSET   4.646930   0.000000   0.000000
                                    CHANNELS 3 Zrotation Xrotation Yrotation
                                    JOINT LeftFinger12
                                    {
                                        OFFSET   2.323470   0.000000   0.000000
                                        CHANNELS 3 Zrotation Xrotation Yrotation
                                        End Site
                                        {
                                            OFFSET   2.273050   0.000000   0.000000
                                        }
                                    }
                                }
                            }
                            JOINT LeftFinger2
                            {
                                OFFSET   8.364490   0.000016   1.078090
                                CHANNELS 3 Zrotation Xrotation Yrotation
                                JOINT LeftFinger21
                                {
                                    OFFSET   5.111620   0.000000   0.000000
                                    CHANNELS 3 Zrotation Xrotation Yrotation
                                    JOINT LeftFinger22
                                    {
                                        OFFSET   2.788150   0.000013   0.000000
                                        CHANNELS 3 Zrotation Xrotation Yrotation
                                        End Site
                                        {
                                            OFFSET   2.727660   0.000000   0.000000
                                        }
                                    }
                                }
                            }
                            JOINT LeftFinger3
                            {
                                OFFSET   7.899780   0.000016  -1.078090
                                CHANNELS 3 Zrotation Xrotation Yrotation
                                JOINT LeftFinger31
                                {
                                    OFFSET   4.646930   0.000000   0.000000
                                    CHANNELS 3 Zrotation Xrotation Yrotation
                                    JOINT LeftFinger32
                                    {
                                        OFFSET   2.323470   0.000000   0.000000
                                        CHANNELS 3 Zrotation Xrotation Yrotation
                                        End Site
                                        {
                                            OFFSET   2.273050   0.000000   0.000000
                                        }
                                    }
                                }
                            }
                            JOINT LeftFinger4
                            {
                                OFFSET   7.435080   0.000000  -3.252850
                                CHANNELS 3 Zrotation Xrotation Yrotation
                                JOINT LeftFinger41
                                {
                                    OFFSET   3.717550   0.000000   0.000000
                                    CHANNELS 3 Zrotation Xrotation Yrotation
                                    JOINT LeftFinger42
                                    {
                                        OFFSET   1.858760   0.000000   0.000000
                                        CHANNELS 3 Zrotation Xrotation Yrotation
                                        End Site
                                        {
                                            OFFSET   1.818440   0.000000   0.000000
                                        }
                                    }
                                }
                            }
                        }
                    }
                }
            }
            JOINT RightCollar
            {
                OFFSET  -3.911900  19.017000  -0.467064
                CHANNELS 3 Zrotation Xrotation Yrotation
                JOINT RightShoulder
                {
                    OFFSET -10.383700   0.000000   0.000000
                    CHANNELS 3 Zrotation Xrotation Yrotation
                    JOINT RightElbow
                    {
                        OFFSET -26.662100   0.001633   0.000260
                        CHANNELS 3 Zrotation Xrotation Yrotation
                        JOINT RightWrist
                        {
                            OFFSET -28.869000  -0.000045  -0.000080
                            CHANNELS 3 Zrotation Xrotation Yrotation
                            JOINT RightFinger0
                            {
                                OFFSET  -2.044660  -2.323490   3.252850
                                CHANNELS 3 Zrotation Xrotation Yrotation
                                JOINT RightFinger01
                                {
                                    OFFSET  -3.088140   0.000000   0.000000
                                    CHANNELS 3 Zrotation Xrotation Yrotation
                                    JOINT RightFinger02
                                    {
                                        OFFSET  -2.639450   0.000000   0.000000
                                        CHANNELS 3 Zrotation Xrotation Yrotation
                                        End Site
                                        {
                                            OFFSET  -2.582190   0.000000   0.000000
                                        }
                                    }
                                }
                            }
                            JOINT RightFinger1
                            {
                                OFFSET  -8.364480   0.000000   3.252850
                                CHANNELS 3 Zrotation Xrotation Yrotation
                                JOINT RightFinger11
                                {
                                    OFFSET  -4.646920   0.000000   0.000000
                                    CHANNELS 3 Zrotation Xrotation Yrotation
                                    JOINT RightFinger12
                                    {
                                        OFFSET  -2.323470   0.000000   0.000000
                                        CHANNELS 3 Zrotation Xrotation Yrotation
                                        End Site
                                        {
                                            OFFSET  -2.273050   0.000000   0.000000
                                        }
                                    }
                                }
                            }
                            JOINT RightFinger2
                            {
                                OFFSET  -8.364480   0.000000   1.078090
                                CHANNELS 3 Zrotation Xrotation Yrotation
                                JOINT RightFinger21
                                {
                                    OFFSET  -5.111610   0.000000   0.000000
                                    CHANNELS 3 Zrotation Xrotation Yrotation
                                    JOINT RightFinger22
                                    {
                                        OFFSET  -2.788160   0.000000   0.000000
                                        CHANNELS 3 Zrotation Xrotation Yrotation
                                        End Site
                                        {
                                            OFFSET  -2.727660   0.000000   0.000000
                                        }
                                    }
                                }
                            }
                            JOINT RightFinger3
                            {
                                OFFSET  -7.899780   0.000000  -1.078090
                                CHANNELS 3 Zrotation Xrotation Yrotation
                                JOINT RightFinger31
                                {
                                    OFFSET  -4.646930   0.000000   0.000000
                                    CHANNELS 3 Zrotation Xrotation Yrotation
                                    JOINT RightFinger32
                                    {
                                        OFFSET  -2.323470   0.000000   0.000000
                                        CHANNELS 3 Zrotation Xrotation Yrotation
                                        End Site
                                        {
                                            OFFSET  -2.273050   0.000000   0.000000
                                        }
                                    }
                                }
                            }
                            JOINT RightFinger4
                            {
                                OFFSET  -7.435090   0.000000  -3.252850
                                CHANNELS 3 Zrotation Xrotation Yrotation
                                JOINT RightFinger41
                                {
                                    OFFSET  -3.717550   0.000000   0.000000
                                    CHANNELS 3 Zrotation Xrotation Yrotation
                                    JOINT RightFinger42
                                    {
                                        OFFSET  -1.858760   0.000000   0.000000
                                        CHANNELS 3 Zrotation Xrotation Yrotation
                                        End Site
                                        {
                                            OFFSET  -1.818440   0.000000   0.000000
                                        }
                                    }
                                }
                            }
                        }
                    }
                }
            }
        }
    }
    JOINT LeftHip
    {
        OFFSET   9.782990   0.000000   0.000000
        CHANNELS 3 Zrotation Xrotation Yrotation
        JOINT LeftKnee
        {
            OFFSET  -0.000063 -41.789100   0.001657
            CHANNELS 3 Zrotation Xrotation Yrotation
            JOINT LeftAnkle
            {
                OFFSET   0.000078 -41.133200  -0.000113
                CHANNELS 3 Zrotation Xrotation Yrotation
                JOINT LeftToe
                {
                    OFFSET   0.000000  -6.358970  14.674500
                    CHANNELS 3 Zrotation Xrotation Yrotation
                    End Site
                    {
                        OFFSET   0.000000   0.000000   3.913200
                    }
                }
            }
        }
    }
    JOINT RightHip
    {
        OFFSET  -9.782990   0.000000   0.000000
        CHANNELS 3 Zrotation Xrotation Yrotation
        JOINT RightKnee
        {
            OFFSET   0.000053 -41.789200   0.000277
            CHANNELS 3 Zrotation Xrotation Yrotation
            JOINT RightAnkle
            {
                OFFSET   0.000030 -41.133200  -0.000150
                CHANNELS 3 Zrotation Xrotation Yrotation
                JOINT RightToe
                {
                    OFFSET   0.000000  -6.358960  14.674500
                    CHANNELS 3 Zrotation Xrotation Yrotation
                    End Site
                    {
                        OFFSET   0.000000   0.000000   3.913200
                    }
                }
            }
        }
    }
}
MOTION
Frames: 6
Frame Time:   0.016667
 -0.228863  89.954000  -1.366670  -0.545179  -1.521930  -0.487192   0.167477   2.466500  -1.652990   0.406738   4.927120  -3.317790   1.019500  -1.150140   0.021674   1.677200  -2.329690   8.192410  -3.893170  -1.812240   5.795820 -70.685500  20.057600   1.464530  -3.029560  -7.902970 -15.203700   7.836010 -22.432200   5.073840  42.244700  31.050400 -67.750100 -22.618500   0.004096   0.001772  -6.309260   0.002021  -0.000645 -28.549200   4.155100  -7.585760 -23.584000   0.001067  -0.002626 -16.508800   0.000389  -0.001534 -28.714000  -1.910470   3.482270 -41.070900  -0.002644  -0.004852 -27.353200  -0.000088  -0.007111 -26.567200  -1.995830   3.984010 -26.636700  -0.005254   0.000238 -17.747700  -0.001179  -0.004144 -28.256400  -2.991690   5.546180 -42.602300  -0.004051  -0.003387 -28.373100  -0.004225  -0.007376   7.752070   1.113460   8.181800  66.933600  12.485500  -0.981367   2.812260  -5.732180   8.777450  -6.741210 -22.360800   0.714364 -46.239400  35.454200  74.522100  17.150100   0.008825  -0.002642   3.575030   0.004383   0.003607  26.928000   1.714930   3.371830  22.073300  -0.006569   0.001370  15.451300  -0.002768  -0.001348  28.037100  -0.394932  -0.741431  32.285600  -0.010743  -0.004864  21.502200   0.000800   0.000109  27.595000  -0.590067  -1.128700  29.713000  -0.010416  -0.005470  19.788800   0.000286  -0.000505  32.299700  -1.458270  -2.305480  48.489800  -0.000372  -0.000000  32.296900  -0.005937   0.005128   0.070234   0.646405   0.089958   0.095344   1.919870  12.181300  -3.874870  -3.000020   3.082630   0.000000   0.000000   0.000000   3.012020   0.525591  -6.655370  -0.966066   3.114640  -7.937980  -9.037750   0.292841   1.945420   0.000000   0.000000   0.000000
 -0.226090  89.954000  -1.377670  -0.544893  -1.540930  -0.470563   0.172948   2.479100  -1.654390   0.418128   4.952140  -3.320930   1.029120  -1.141220   0.021672   1.692990  -2.311560   8.219930  -3.898950  -1.815480   5.810160 -70.699500  20.065400   1.455780  -3.004730  -7.906790 -15.190900   7.829440 -22.433400   5.056370  42.187200  30.975700 -67.692100 -22.635000   0.004097   0.001761  -6.317510   0.002023  -0.000675 -28.536600   4.154000  -7.584610 -23.574300   0.001072  -0.002627 -16.502100   0.000387  -0.001534 -28.713700  -1.911680   3.484450 -41.058800  -0.002618  -0.004827 -27.345200  -0.000082  -0.007122 -26.567500  -1.997930   3.988000 -26.637300  -0.005199   0.000275 -17.746800  -0.001218  -0.004100 -28.248100  -3.003370   5.569150 -42.592200  -0.004073  -0.003350 -28.366400  -0.004265  -0.007356   7.770150   1.083700   8.209010  66.886100  12.466500  -1.006260   2.789600  -5.708830   8.777120  -6.744060 -22.421900   0.707115 -46.264600  35.478600  74.550600  17.142300   0.008831  -0.002645   3.571130   0.004375   0.003604  26.921600   1.718170   3.379050  22.068100  -0.006568   0.001375  15.447700  -0.002764  -0.001348  28.036700  -0.393445  -0.738646  32.271200  -0.010724  -0.004908  21.492500   0.000798   0.000073  27.594100  -0.588866  -1.126430  29.704500  -0.010391  -0.005517  19.783200   0.000283  -0.000538  32.302300  -1.447280  -2.287130  48.495300  -0.000266  -0.000055  32.299200  -0.005973   0.005095   0.070315   0.653602   0.081069   0.095423   1.919980  12.177600  -3.875380  -2.990670   3.082410   0.000000   0.000000   0.000000   3.028480   0.539842  -6.641410  -0.989030   3.115460  -7.959110  -9.028130   0.304790   1.935440   0.000000   0.000000   0.000000
 -0.219821  89.953800  -1.396960  -0.544448  -1.574160  -0.444424   0.182112   2.501350  -1.659700   0.437367   4.996340  -3.332120   1.046740  -1.128190   0.021660   1.721930  -2.285060   8.273150  -3.906700  -1.827280   5.850820 -70.737700  20.079100   1.431680  -2.985400  -7.930690 -15.178900   7.823120 -22.434500   5.038910  42.007600  30.744200 -67.472700 -22.704200   0.004100   0.001751  -6.352080   0.002028  -0.000747 -28.525400   4.146320  -7.576550 -23.564700   0.001080  -0.002631 -16.495300   0.000386  -0.001534 -28.712500  -1.920170   3.499720 -41.010500  -0.002573  -0.004772 -27.313000  -0.000066  -0.007145 -26.566100  -2.012670   4.015910 -26.637900  -0.005089   0.000354 -17.740800  -0.001315  -0.004003 -28.218400  -3.046330   5.654790 -42.555300  -0.004122  -0.003275 -28.341800  -0.004352  -0.007310   7.801310   1.032030   8.255920  66.808900  12.405800  -1.030990   2.752160  -5.685480   8.776790  -6.751690 -22.483000   0.699861 -46.284300  35.503000  74.579100  17.119300   0.008837  -0.002649   3.559650   0.004361   0.003596  26.900300   1.728970   3.403360  22.051300  -0.006566   0.001384  15.435900  -0.002753  -0.001349  28.033600  -0.383037  -0.719147  32.236000  -0.010684  -0.005003  21.469100   0.000796   0.000000  27.588200  -0.580461  -1.110520  29.670200  -0.010339  -0.005620  19.760400   0.000276  -0.000611  32.306200  -1.418190  -2.241510  48.500700  -0.000068  -0.000176  32.301400  -0.006053   0.005023   0.070383   0.666658   0.068163   0.095543   1.920110  12.170100  -3.876120  -2.975550   3.082180   0.000000   0.000000   0.000000   3.053350   0.563341  -6.626980  -1.025510   3.119130  -7.983700  -9.012540   0.323817   1.918330   0.000000   0.000000  -0.000000
 -0.211123  89.953800  -1.413680  -0.547094  -1.603070  -0.425644   0.189661   2.520660  -1.670590   0.453538   5.034680  -3.354400   1.063610  -1.120650   0.021615   1.749730  -2.269810   8.331290  -3.908640  -1.844680   5.917500 -70.778400  20.095000   1.385270  -3.135160  -8.323350 -15.211100   7.853920 -22.268400   5.046130  41.646200  30.291900 -67.040500 -22.870400   0.004106   0.001799  -6.435170   0.002035  -0.000855 -28.551300   4.101980  -7.490050 -23.582200   0.001090  -0.002640 -16.507500   0.000387  -0.001534 -28.705100  -1.982780   3.614360 -40.877700  -0.002528  -0.004697 -27.224600  -0.000027  -0.007178 -26.483300  -2.061140   4.126600 -26.559900  -0.004945   0.000464 -17.686300  -0.001464  -0.003867 -28.158400  -3.129010   5.821200 -42.479900  -0.004194  -0.003174 -28.291600  -0.004474  -0.007246   7.833510   0.987776   8.307590  66.741200  12.338100  -1.016400   2.728730  -5.725610   8.752270  -6.752830 -22.416100   0.737291 -46.274300  35.500000  74.577800  17.066400   0.008826  -0.002637   3.533200   0.004349   0.003580  26.872600   1.755970   3.464520  22.030000  -0.006564   0.001396  15.421000  -0.002737  -0.001351  28.029400  -0.328580  -0.617471  32.203300  -0.010630  -0.005136  21.447400   0.000794  -0.000086  27.576500  -0.533852  -1.022440  29.608500  -0.010272  -0.005761  19.719300   0.000265  -0.000715  32.265900  -1.356830  -2.150790  48.437400   0.000189  -0.000347  32.259300  -0.006166   0.004927   0.070256   0.678170   0.062260   0.096042   1.918050  12.159100  -3.876350  -2.964340   3.082200   0.000000   0.000000  -0.000000   3.067510   0.580954  -6.626450  -1.050390   3.126300  -7.987770  -9.001130   0.337696   1.902300  -0.000000   0.000000   0.000000
 -0.200904  89.953700  -1.432910  -0.552668  -1.635770  -0.411119   0.197030   2.543770  -1.684260   0.469594   5.080610  -3.382250   1.083560  -1.117230   0.021580   1.782440  -2.262720   8.398000  -3.908830  -1.880770   6.006340 -70.879400  20.105100   1.341760  -3.430830  -9.185840 -15.356200   7.919380 -21.987600   5.128550  41.288400  29.780300 -66.488100 -23.039600   0.004112   0.001848  -6.519810   0.002042  -0.000989 -28.627000   3.994520  -7.270820 -23.633800   0.001101  -0.002649 -16.543600   0.000389  -0.001534 -28.689700  -2.121180   3.867600 -40.781200  -0.002500  -0.004617 -27.160300   0.000000  -0.007210 -26.343000  -2.150110   4.331740 -26.427900  -0.004816   0.000575 -17.600900  -0.001646  -0.003721 -28.084100  -3.241760   6.047660 -42.387500  -0.004277  -0.003074 -28.230100  -0.004604  -0.007178   7.856640   0.938229   8.339490  66.688500  12.152300  -0.944415   2.729820  -6.004470   8.721100  -6.828830 -21.949000   0.772486 -46.248900  35.479300  74.569100  17.028700   0.008808  -0.002625   3.514340   0.004333   0.003559  26.809300   1.775400   3.508590  21.980200  -0.006563   0.001410  15.386100  -0.002715  -0.001352  28.016600  -0.283041  -0.532511  32.119800  -0.010575  -0.005278  21.391800   0.000792  -0.000176  27.556400  -0.494446  -0.947996  29.505700  -0.010204  -0.005911  19.650800   0.000251  -0.000826  32.163600  -1.313560  -2.087340  48.282600   0.000354  -0.000529  32.156200  -0.006293   0.004824   0.069951   0.693277   0.057823   0.096554   1.915980  12.150400  -3.876290  -2.953890   3.082500   0.000000   0.000000  -0.000000   3.079130   0.599606  -6.626390  -1.072970   3.137210  -7.988430  -8.990000   0.349451   1.888440   0.000000   0.000000  -0.000000
 -0.190809  89.954700  -1.456620  -0.559066  -1.673280  -0.404126   0.203734   2.574040  -1.699500   0.484615   5.140870  -3.413310   1.107470  -1.121550   0.021699   1.821670  -2.271570   8.473340  -3.906040  -1.958250   6.119720 -71.092700  19.965400   1.326070  -3.788630 -10.428600 -15.640700   8.023560 -21.694300   5.442290  40.903200  29.262100 -65.724500 -23.122500   0.004117   0.001845  -6.561290   0.002048  -0.001142 -28.766300   3.773020  -6.856420 -23.723500   0.001116  -0.002655 -16.606400   0.000391  -0.001537 -28.679300  -2.358990   4.301480 -40.794000  -0.002523  -0.004540 -27.168900   0.000000  -0.007231 -26.188800  -2.306060   4.694320 -26.289600  -0.004770   0.000654 -17.508900  -0.001846  -0.003583 -27.990300  -3.420030   6.403560 -42.274400  -0.004360  -0.003004 -28.154800  -0.004727  -0.007113   7.861450   0.877408   8.335600  66.739000  11.784800  -0.788580   2.809360  -6.851860   8.719190  -7.036930 -20.743000   0.759375 -46.065300  35.204700  74.212500  17.232900   0.008795  -0.002641   3.616450   0.004315   0.003538  26.663100   1.687190   3.349160  21.856200  -0.006558   0.001422  15.299400  -0.002688  -0.001354  27.979700  -0.347569  -0.655326  31.885900  -0.010533  -0.005412  21.236100   0.000791  -0.000267  27.511600  -0.560206  -1.076340  29.286900  -0.010149  -0.006052  19.505000   0.000237  -0.000932  31.985800  -1.390670  -2.224690  48.019000   0.000332  -0.000699  31.980700  -0.006417   0.004723   0.069447   0.713219   0.054003   0.096901   1.916220  12.148500  -3.876260  -2.945030   3.086110  -0.000000   0.000000   0.000000   3.091020   0.619988  -6.637120  -1.095700   3.153270  -7.977420  -8.978270   0.357259   1.881110   0.000000   0.000000   0.000000
